<svg viewBox="0 0 1000 400" xmlns="http://www.w3.org/2000/svg">
  <rect width="1000" height="400" fill="#0f172a" rx="10"/>
  <defs>
    <pattern id="grid" width="40" height="40" patternUnits="userSpaceOnUse">
      <path d="M 40 0 L 0 0 0 40" fill="none" stroke="#1e293b" stroke-width="1"/>
    </pattern>
  </defs>
  <rect width="1000" height="400" fill="url(#grid)" />

  <path id="fuji-track" 
        d="M 150,320 L 850,320 Q 920,320 930,280 L 910,240 Q 890,200 830,210 L 750,230 Q 700,240 680,200 L 650,120 Q 630,70 580,80 L 450,120 Q 400,130 380,170 L 350,230 Q 330,280 280,270 L 180,250 Q 120,240 100,280 Z" 
        fill="none" stroke="#ef4444" stroke-width="5" stroke-linejoin="round" stroke-linecap="round">
    <animate attributeName="stroke-opacity" values="1;0.4;1" dur="3s" repeatCount="indefinite" />
  </path>

  <line x1="250" y1="310" x2="250" y2="330" stroke="white" stroke-width="3" />
  <text x="50" y="50" fill="white" font-family="sans-serif" font-weight="bold" font-size="20" opacity="0.6">FUJI SPEEDWAY | 760 COMMITS</text>

  <g id="car">
    <rect x="-12" y="-5" width="24" height="10" rx="2" fill="#ef4444" />
    <rect x="8" y="-8" width="4" height="16" fill="#1e293b" />
    <rect x="-14" y="-7" width="3" height="14" fill="#1e293b" />
    <circle cx="0" cy="0" r="3" fill="#ffffff" />
    <circle cx="0" cy="0" r="2" fill="#334155" />
    <rect x="6" y="-9" width="5" height="3" rx="1" fill="#000" /> 
    <rect x="6" y="6" width="5" height="3" rx="1" fill="#000" /> 
    <rect x="-10" y="-10" width="6" height="4" rx="1" fill="#000" /> 
    <rect x="-10" y="6" width="6" height="4" rx="1" fill="#000" /> 
    <animateMotion dur="4s" repeatCount="indefinite" rotate="auto">
      <mpath href="#fuji-track" />
    </animateMotion>
  </g>
</svg>