<?xml version="1.0" encoding="utf-8" ?>
<svg baseProfile="full" height="500" version="1.1" width="500" xmlns="http://www.w3.org/2000/svg" xmlns:ev="http://www.w3.org/2001/xml-events" xmlns:xlink="http://www.w3.org/1999/xlink"><defs /><circle cx="250" cy="250" fill="none" r="150" stroke="black" stroke-width="3" /><circle cx="250.00019901923451" cy="100.00000000013202" fill="rgb(0, 255, 0)" r="3.0" stroke="none" /><circle cx="252.58220023241108" cy="100.02222750700778" fill="rgb(66, 188, 0)" r="4.309523809523809" stroke="none" /><circle cx="255.16343628522293" cy="100.08889658958398" fill="rgb(18, 236, 0)" r="3.357142857142857" stroke="none" /><circle cx="257.74314230301206" cy="100.19998749240605" fill="rgb(6, 248, 0)" r="3.119047619047619" stroke="none" /><circle cx="260.320553864502" cy="100.3554672968975" fill="rgb(0, 255, 0)" r="3.0" stroke="none" /><circle cx="262.89490722831243" cy="100.5552899311146" fill="rgb(0, 255, 0)" r="3.0" stroke="none" /><circle cx="265.465439559271" cy="100.7993961833983" fill="rgb(0, 255, 0)" r="3.0" stroke="none" /><circle cx="268.03138915445817" cy="101.08771371992003" fill="rgb(0, 255, 0)" r="3.0" stroke="none" /><circle cx="270.5919956689156" cy="101.42015710611562" fill="rgb(18, 236, 0)" r="3.357142857142857" stroke="none" /><circle cx="273.14650034095246" cy="101.79662783200143" fill="rgb(0, 255, 0)" r="3.0" stroke="none" /><circle cx="275.6941462169824" cy="102.21701434136497" fill="rgb(6, 248, 0)" r="3.119047619047619" stroke="none" /><circle cx="278.2341783758249" cy="102.6811920648212" fill="rgb(6, 248, 0)" r="3.119047619047619" stroke="none" /><circle cx="280.76584415240444" cy="103.18902345672527" fill="rgb(0, 255, 0)" r="3.0" stroke="none" /><circle cx="283.2883933607808" cy="103.74035803593009" fill="rgb(12, 242, 0)" r="3.238095238095238" stroke="none" /><circle cx="285.8010785164453" cy="104.335032430377" fill="rgb(0, 255, 0)" r="3.0" stroke="none" /><circle cx="288.30315505781573" cy="104.9728704255065" fill="rgb(0, 255, 0)" r="3.0" stroke="none" /><circle cx="290.7938815668662" cy="105.65368301647425" fill="rgb(12, 242, 0)" r="3.238095238095238" stroke="none" /><circle cx="293.2725199888247" cy="106.37726846415723" fill="rgb(12, 242, 0)" r="3.238095238095238" stroke="none" /><circle cx="295.7383358508739" cy="107.14341235493316" fill="rgb(12, 242, 0)" r="3.238095238095238" stroke="none" /><circle cx="298.1905984797918" cy="107.95188766421609" fill="rgb(0, 255, 0)" r="3.0" stroke="none" /><circle cx="300.62858121846466" cy="108.80245482372817" fill="rgb(0, 255, 0)" r="3.0" stroke="none" /><circle cx="303.05156164121144" cy="109.69486179248906" fill="rgb(0, 255, 0)" r="3.0" stroke="none" /><circle cx="305.4588217678535" cy="110.62884413150095" fill="rgb(0, 255, 0)" r="3.0" stroke="none" /><circle cx="307.8496482764675" cy="111.60412508210732" fill="rgb(6, 248, 0)" r="3.119047619047619" stroke="none" /><circle cx="310.2233327147575" cy="112.62041564800242" fill="rgb(0, 255, 0)" r="3.0" stroke="none" /><circle cx="312.57917170998417" cy="113.67741468086695" fill="rgb(18, 236, 0)" r="3.357142857142857" stroke="none" /><circle cx="314.91646717738945" cy="114.7748089696046" fill="rgb(12, 242, 0)" r="3.238095238095238" stroke="none" /><circle cx="317.2345265270533" cy="115.91227333315337" fill="rgb(0, 255, 0)" r="3.0" stroke="none" /><circle cx="319.5326628691229" cy="117.08947071684312" fill="rgb(0, 255, 0)" r="3.0" stroke="none" /><circle cx="321.8101952173527" cy="118.3060522922724" fill="rgb(12, 242, 0)" r="3.238095238095238" stroke="none" /><circle cx="324.06644869089484" cy="119.56165756067335" fill="rgb(42, 212, 0)" r="3.833333333333333" stroke="none" /><circle cx="326.3007547142805" cy="120.85591445973535" fill="rgb(12, 242, 0)" r="3.238095238095238" stroke="none" /><circle cx="328.51245121553325" cy="122.18843947385467" fill="rgb(0, 255, 0)" r="3.0" stroke="none" /><circle cx="330.7008828223544" cy="123.55883774777844" fill="rgb(0, 255, 0)" r="3.0" stroke="none" /><circle cx="332.86540105632423" cy="124.96670320360845" fill="rgb(18, 236, 0)" r="3.357142857142857" stroke="none" /><circle cx="335.0053645250593" cy="126.41161866113063" fill="rgb(12, 242, 0)" r="3.238095238095238" stroke="none" /><circle cx="337.1201391122708" cy="127.89315596143442" fill="rgb(0, 255, 0)" r="3.0" stroke="none" /><circle cx="339.20909816566666" cy="129.41087609378513" fill="rgb(0, 255, 0)" r="3.0" stroke="none" /><circle cx="341.2716226826416" cy="130.96432932571219" fill="rgb(66, 188, 0)" r="4.309523809523809" stroke="none" /><circle cx="343.30710149370066" cy="132.55305533627433" fill="rgb(6, 248, 0)" r="3.119047619047619" stroke="none" /><circle cx="345.3149314435619" cy="134.1765833524624" fill="rgb(18, 236, 0)" r="3.357142857142857" stroke="none" /><circle cx="347.2945175698836" cy="135.83443228869922" fill="rgb(6, 248, 0)" r="3.119047619047619" stroke="none" /><circle cx="349.2452732795647" cy="137.52611088939562" fill="rgb(0, 255, 0)" r="3.0" stroke="none" /><circle cx="351.1666205225639" cy="139.2511178745196" fill="rgb(6, 248, 0)" r="3.119047619047619" stroke="none" /><circle cx="353.0579899631889" cy="141.00894208813617" fill="rgb(30, 224, 0)" r="3.5952380952380953" stroke="none" /><circle cx="354.9188211488022" cy="142.79906264987392" fill="rgb(30, 224, 0)" r="3.5952380952380953" stroke="none" /><circle cx="356.7485626758949" cy="144.6209491092725" fill="rgb(0, 255, 0)" r="3.0" stroke="none" /><circle cx="358.5466723534793" cy="146.47406160296634" fill="rgb(0, 255, 0)" r="3.0" stroke="none" /><circle cx="360.31261736375177" cy="148.35785101465785" fill="rgb(0, 255, 0)" r="3.0" stroke="none" /><circle cx="362.04587441997745" cy="150.2717591378318" fill="rgb(0, 255, 0)" r="3.0" stroke="none" /><circle cx="363.74592992155146" cy="152.21521884116373" fill="rgb(0, 255, 0)" r="3.0" stroke="none" /><circle cx="365.4122801061895" cy="154.18765423657317" fill="rgb(0, 255, 0)" r="3.0" stroke="none" /><circle cx="367.0444311992032" cy="156.18848084987113" fill="rgb(0, 255, 0)" r="3.0" stroke="none" /><circle cx="368.64189955981595" cy="158.2171057939523" fill="rgb(0, 255, 0)" r="3.0" stroke="none" /><circle cx="370.20421182447603" cy="160.27292794447987" fill="rgb(0, 255, 0)" r="3.0" stroke="none" /><circle cx="371.730905047124" cy="162.3553381180115" fill="rgb(0, 255, 0)" r="3.0" stroke="none" /><circle cx="373.2215268363734" cy="164.46371925251304" fill="rgb(0, 255, 0)" r="3.0" stroke="none" /><circle cx="374.6756354895641" cy="166.59744659020717" fill="rgb(0, 255, 0)" r="3.0" stroke="none" /><circle cx="376.09280012364775" cy="168.75588786270217" fill="rgb(0, 255, 0)" r="3.0" stroke="none" /><circle cx="377.4726008028677" cy="170.9384034783465" fill="rgb(0, 255, 0)" r="3.0" stroke="none" /><circle cx="378.81462866319487" cy="173.14434671175314" fill="rgb(0, 255, 0)" r="3.0" stroke="none" /><circle cx="380.1184860334828" cy="175.37306389543826" fill="rgb(0, 255, 0)" r="3.0" stroke="none" /><circle cx="381.38378655330564" cy="177.62389461351614" fill="rgb(0, 255, 0)" r="3.0" stroke="none" /><circle cx="382.6101552874455" cy="179.89617189739494" fill="rgb(6, 248, 0)" r="3.119047619047619" stroke="none" /><circle cx="383.79722883699293" cy="182.18922242341307" fill="rgb(0, 255, 0)" r="3.0" stroke="none" /><circle cx="384.9446554470304" cy="184.5023667123594" fill="rgb(0, 255, 0)" r="3.0" stroke="none" /><circle cx="386.05209511086423" cy="186.8349193308173" fill="rgb(0, 255, 0)" r="3.0" stroke="none" /><circle cx="387.1192196707758" cy="189.18618909427292" fill="rgb(0, 255, 0)" r="3.0" stroke="none" /><circle cx="388.1457129152618" cy="191.55547927192782" fill="rgb(0, 255, 0)" r="3.0" stroke="none" /><circle cx="389.1312706727342" cy="193.94208779315477" fill="rgb(6, 248, 0)" r="3.119047619047619" stroke="none" /><circle cx="390.0756009016527" cy="196.34530745553644" fill="rgb(0, 255, 0)" r="3.0" stroke="none" /><circle cx="390.97842377706286" cy="198.76442613442416" fill="rgb(24, 230, 0)" r="3.4761904761904763" stroke="none" /><circle cx="391.8394717735141" cy="201.19872699395535" fill="rgb(0, 255, 0)" r="3.0" stroke="none" /><circle cx="392.6584897443331" cy="203.64748869946752" fill="rgb(0, 255, 0)" r="3.0" stroke="none" /><circle cx="393.4352349972294" cy="206.1099856312443" fill="rgb(0, 255, 0)" r="3.0" stroke="none" /><circle cx="394.16947736620966" cy="208.5854880995326" fill="rgb(0, 255, 0)" r="3.0" stroke="none" /><circle cx="394.86099927978137" cy="211.07326256076445" fill="rgb(0, 255, 0)" r="3.0" stroke="none" /><circle cx="395.5095958254234" cy="213.57257183492172" fill="rgb(0, 255, 0)" r="3.0" stroke="none" /><circle cx="396.11507481030594" cy="216.08267532397804" fill="rgb(0, 255, 0)" r="3.0" stroke="none" /><circle cx="396.67725681824174" cy="218.60282923135358" fill="rgb(0, 255, 0)" r="3.0" stroke="none" /><circle cx="397.19597526285037" cy="221.13228678231783" fill="rgb(0, 255, 0)" r="3.0" stroke="none" /><circle cx="397.6710764369214" cy="223.6702984452744" fill="rgb(0, 255, 0)" r="3.0" stroke="none" /><circle cx="398.1024195579613" cy="226.21611215386324" fill="rgb(0, 255, 0)" r="3.0" stroke="none" /><circle cx="398.48987680991" cy="228.76897352981368" fill="rgb(0, 255, 0)" r="3.0" stroke="none" /><circle cx="398.8333333810158" cy="231.32812610648264" fill="rgb(0, 255, 0)" r="3.0" stroke="none" /><circle cx="399.13268749785607" cy="233.89281155301168" fill="rgb(0, 255, 0)" r="3.0" stroke="none" /><circle cx="399.3878504554954" cy="236.46226989903636" fill="rgb(0, 255, 0)" r="3.0" stroke="none" /><circle cx="399.59874664377026" cy="239.03573975988152" fill="rgb(0, 255, 0)" r="3.0" stroke="none" /><circle cx="399.76531356969406" cy="241.61245856217553" fill="rgb(0, 255, 0)" r="3.0" stroke="none" /><circle cx="399.8875018759752" cy="244.191662769817" fill="rgb(0, 255, 0)" r="3.0" stroke="none" /><circle cx="399.96527535564275" cy="246.7725881102264" fill="rgb(6, 248, 0)" r="3.119047619047619" stroke="none" /><circle cx="399.99861096277505" cy="249.35446980081653" fill="rgb(30, 224, 0)" r="3.5952380952380953" stroke="none" /><circle cx="399.987498819329" cy="251.9365427756132" fill="rgb(30, 224, 0)" r="3.5952380952380953" stroke="none" /><circle cx="399.931942218067" cy="254.51804191196075" fill="rgb(0, 255, 0)" r="3.0" stroke="none" /><circle cx="399.83195762158107" cy="257.0982022572441" fill="rgb(0, 255, 0)" r="3.0" stroke="none" /><circle cx="399.687574657415" cy="259.67625925556" fill="rgb(6, 248, 0)" r="3.119047619047619" stroke="none" /><circle cx="399.49883610928487" cy="262.25144897427145" fill="rgb(0, 255, 0)" r="3.0" stroke="none" /><circle cx="399.2657979044013" cy="264.8230083303766" fill="rgb(12, 242, 0)" r="3.238095238095238" stroke="none" /><circle cx="398.9885290968972" cy="267.3901753166267" fill="rgb(12, 242, 0)" r="3.238095238095238" stroke="none" /><circle cx="398.6671118473653" cy="269.95218922732477" fill="rgb(18, 236, 0)" r="3.357142857142857" stroke="none" /><circle cx="398.3016413985125" cy="272.5082908837388" fill="rgb(12, 242, 0)" r="3.238095238095238" stroke="none" /><circle cx="397.89222604693737" cy="275.05772285906227" fill="rgb(30, 224, 0)" r="3.5952380952380953" stroke="none" /><circle cx="397.4389871110396" cy="277.5997297028559" fill="rgb(0, 255, 0)" r="3.0" stroke="none" /><circle cx="396.94205889507055" cy="280.1335581649032" fill="rgb(0, 255, 0)" r="3.0" stroke="none" /><circle cx="396.40158864933665" cy="282.6584574184148" fill="rgb(12, 242, 0)" r="3.238095238095238" stroke="none" /><circle cx="395.8177365265654" cy="285.173679282514" fill="rgb(18, 236, 0)" r="3.357142857142857" stroke="none" /><circle cx="395.19067553444904" cy="287.67847844393856" fill="rgb(48, 206, 0)" r="3.9523809523809526" stroke="none" /><circle cx="394.52059148437877" cy="290.1721126778928" fill="rgb(24, 230, 0)" r="3.4761904761904763" stroke="none" /><circle cx="393.8076829363847" cy="292.65384306798444" fill="rgb(36, 218, 0)" r="3.7142857142857144" stroke="none" /><circle cx="393.0521611402987" cy="295.122934225181" fill="rgb(24, 230, 0)" r="3.4761904761904763" stroke="none" /><circle cx="392.2542499731562" cy="297.57865450572115" fill="rgb(12, 242, 0)" r="3.238095238095238" stroke="none" /><circle cx="391.41418587285693" cy="300.02027622791644" fill="rgb(0, 255, 0)" r="3.0" stroke="none" /><circle cx="390.53221776810346" cy="302.4470758877781" fill="rgb(42, 212, 0)" r="3.833333333333333" stroke="none" /><circle cx="389.608607004638" cy="304.8583343734071" fill="rgb(12, 242, 0)" r="3.238095238095238" stroke="none" /><circle cx="388.6436272678007" cy="307.253337178082" fill="rgb(24, 230, 0)" r="3.4761904761904763" stroke="none" /><circle cx="387.6375645014305" cy="309.6313746119822" fill="rgb(12, 242, 0)" r="3.238095238095238" stroke="none" /><circle cx="386.5907168231341" cy="311.9917420124842" fill="rgb(36, 218, 0)" r="3.7142857142857144" stroke="none" /><circle cx="385.50339443594726" cy="314.33373995296785" fill="rgb(6, 248, 0)" r="3.119047619047619" stroke="none" /><circle cx="384.3759195364155" cy="316.65667445007125" fill="rgb(18, 236, 0)" r="3.357142857142857" stroke="none" /><circle cx="383.20862621912005" cy="318.9598571693326" fill="rgb(6, 248, 0)" r="3.119047619047619" stroke="none" /><circle cx="382.00186037767867" cy="321.24260562915856" fill="rgb(18, 236, 0)" r="3.357142857142857" stroke="none" /><circle cx="380.75597960225036" cy="323.5042434030573" fill="rgb(24, 230, 0)" r="3.4761904761904763" stroke="none" /><circle cx="379.4713530735735" cy="325.74410032007825" fill="rgb(6, 248, 0)" r="3.119047619047619" stroke="none" /><circle cx="378.1483614535699" cy="327.96151266339814" fill="rgb(12, 242, 0)" r="3.238095238095238" stroke="none" /><circle cx="376.78739677254697" cy="330.155823366994" fill="rgb(12, 242, 0)" r="3.238095238095238" stroke="none" /><circle cx="375.3888623130304" cy="332.32638221034557" fill="rgb(0, 255, 0)" r="3.0" stroke="none" /><circle cx="373.9531724902633" cy="334.47254601110967" fill="rgb(6, 248, 0)" r="3.119047619047619" stroke="none" /><circle cx="372.48075272940616" cy="336.59367881570836" fill="rgb(12, 242, 0)" r="3.238095238095238" stroke="none" /><circle cx="370.97203933947463" cy="338.68915208777565" fill="rgb(0, 255, 0)" r="3.0" stroke="none" /><circle cx="369.42747938405154" cy="340.758344894406" fill="rgb(12, 242, 0)" r="3.238095238095238" stroke="none" /><circle cx="367.84753054881287" cy="342.8006440901496" fill="rgb(6, 248, 0)" r="3.119047619047619" stroke="none" /><circle cx="366.2326610059057" cy="344.8154444987008" fill="rgb(0, 255, 0)" r="3.0" stroke="none" /><circle cx="364.58334927521895" cy="346.80214909222406" fill="rgb(6, 248, 0)" r="3.119047619047619" stroke="none" /><circle cx="362.900084082588" cy="348.7601691682662" fill="rgb(0, 255, 0)" r="3.0" stroke="none" /><circle cx="361.1833642149746" cy="350.68892452420135" fill="rgb(0, 255, 0)" r="3.0" stroke="none" /><circle cx="359.43369837266596" cy="352.587843629157" fill="rgb(0, 255, 0)" r="3.0" stroke="none" /><circle cx="357.6516050185362" cy="354.456363793371" fill="rgb(0, 255, 0)" r="3.0" stroke="none" /><circle cx="355.837612224415" cy="356.29393133492783" fill="rgb(0, 255, 0)" r="3.0" stroke="none" /><circle cx="353.99225751460824" cy="358.100001743827" fill="rgb(0, 255, 0)" r="3.0" stroke="none" /><circle cx="352.11608770661877" cy="359.8740398433322" fill="rgb(0, 255, 0)" r="3.0" stroke="none" /><circle cx="350.2096587491126" cy="361.6155199485556" fill="rgb(6, 248, 0)" r="3.119047619047619" stroke="none" /><circle cx="348.27353555717957" cy="363.3239260222296" fill="rgb(6, 248, 0)" r="3.119047619047619" stroke="none" /><circle cx="346.3082918449373" cy="364.99875182761934" fill="rgb(18, 236, 0)" r="3.357142857142857" stroke="none" /><circle cx="344.3145099555274" cy="366.6395010785314" fill="rgb(24, 230, 0)" r="3.4761904761904763" stroke="none" /><circle cx="342.29278068855507" cy="368.2456875863736" fill="rgb(30, 224, 0)" r="3.5952380952380953" stroke="none" /><circle cx="340.2437031250225" cy="369.8168354042236" fill="rgb(0, 255, 0)" r="3.0" stroke="none" /><circle cx="338.16788444980875" cy="371.3524789678611" fill="rgb(18, 236, 0)" r="3.357142857142857" stroke="none" /><circle cx="336.06593977174816" cy="372.85216323372504" fill="rgb(6, 248, 0)" r="3.119047619047619" stroke="none" /><circle cx="333.93849194136027" cy="374.31544381375227" fill="rgb(24, 230, 0)" r="3.4761904761904763" stroke="none" /><circle cx="331.78617136628634" cy="375.7418871070593" fill="rgb(6, 248, 0)" r="3.119047619047619" stroke="none" /><circle cx="329.60961582448624" cy="377.13107042842717" fill="rgb(6, 248, 0)" r="3.119047619047619" stroke="none" /><circle cx="327.40947027525146" cy="378.4825821335521" fill="rgb(12, 242, 0)" r="3.238095238095238" stroke="none" /><circle cx="325.18638666809" cy="379.79602174102433" fill="rgb(24, 230, 0)" r="3.4761904761904763" stroke="none" /><circle cx="322.94102374953974" cy="381.0710000509994" fill="rgb(36, 218, 0)" r="3.7142857142857144" stroke="none" /><circle cx="320.6740468679685" cy="382.3071392605259" fill="rgb(0, 255, 0)" r="3.0" stroke="none" /><circle cx="318.3861277764169" cy="383.50407307549676" fill="rgb(18, 236, 0)" r="3.357142857142857" stroke="none" /><circle cx="316.07794443354373" cy="384.6614468191899" fill="rgb(24, 230, 0)" r="3.4761904761904763" stroke="none" /><circle cx="313.75018080273287" cy="385.7789175373661" fill="rgb(24, 230, 0)" r="3.4761904761904763" stroke="none" /><circle cx="311.40352664942014" cy="386.85615409989407" fill="rgb(12, 242, 0)" r="3.238095238095238" stroke="none" /><circle cx="309.03867733670137" cy="387.89283729887086" fill="rgb(18, 236, 0)" r="3.357142857142857" stroke="none" /><circle cx="306.6563336192818" cy="388.8886599432101" fill="rgb(0, 255, 0)" r="3.0" stroke="none" /><circle cx="304.25720143582754" cy="389.84332694966906" fill="rgb(18, 236, 0)" r="3.357142857142857" stroke="none" /><circle cx="301.8419916997812" cy="390.7565554302883" fill="rgb(12, 242, 0)" r="3.238095238095238" stroke="none" /><circle cx="299.41142008870304" cy="391.628074776217" fill="rgb(24, 230, 0)" r="3.4761904761904763" stroke="none" /><circle cx="296.9662068322007" cy="392.45762673790034" fill="rgb(0, 255, 0)" r="3.0" stroke="none" /><circle cx="294.5070764985103" cy="393.24496550160416" fill="rgb(0, 255, 0)" r="3.0" stroke="none" /><circle cx="292.0347577797909" cy="393.9898577622546" fill="rgb(6, 248, 0)" r="3.119047619047619" stroke="none" /><circle cx="289.54998327619836" cy="394.6920827925717" fill="rgb(6, 248, 0)" r="3.119047619047619" stroke="none" /><circle cx="287.0534892788002" cy="395.3514325084752" fill="rgb(0, 255, 0)" r="3.0" stroke="none" /><circle cx="284.5460155513969" cy="395.9677115307445" fill="rgb(24, 230, 0)" r="3.4761904761904763" stroke="none" /><circle cx="282.02830511131435" cy="396.5407372429133" fill="rgb(42, 212, 0)" r="3.833333333333333" stroke="none" /><circle cx="279.5011040092323" cy="397.07033984538305" fill="rgb(42, 212, 0)" r="3.833333333333333" stroke="none" /><circle cx="276.9651611081139" cy="397.5563624057379" fill="rgb(18, 236, 0)" r="3.357142857142857" stroke="none" /><circle cx="274.4212278613012" cy="397.9986609052474" fill="rgb(0, 255, 0)" r="3.0" stroke="none" /><circle cx="271.8700580898445" cy="398.39710428154194" fill="rgb(0, 255, 0)" r="3.0" stroke="none" /><circle cx="269.31240775912886" cy="398.75157446744936" fill="rgb(0, 255, 0)" r="3.0" stroke="none" /><circle cx="266.74903475486553" cy="399.06196642598104" fill="rgb(0, 255, 0)" r="3.0" stroke="none" /><circle cx="264.18069865851464" cy="399.3281881814562" fill="rgb(0, 255, 0)" r="3.0" stroke="none" /><circle cx="261.60816052220514" cy="399.5501608467564" fill="rgb(48, 206, 0)" r="3.9523809523809526" stroke="none" /><circle cx="259.032182643219" cy="399.7278186467015" fill="rgb(6, 248, 0)" r="3.119047619047619" stroke="none" /><circle cx="256.45352833810654" cy="399.86110893754005" fill="rgb(0, 255, 0)" r="3.0" stroke="none" /><circle cx="253.87296171649928" cy="399.9499922225491" fill="rgb(0, 255, 0)" r="3.0" stroke="none" /><circle cx="251.2912474546888" cy="399.9944421637374" fill="rgb(0, 255, 0)" r="3.0" stroke="none" /><circle cx="248.70915056903647" cy="399.99444558965035" fill="rgb(0, 255, 0)" r="3.0" stroke="none" /><circle cx="246.12743618928317" cy="399.95000249927284" fill="rgb(0, 255, 0)" r="3.0" stroke="none" /><circle cx="243.5468693318253" cy="399.86112606202937" fill="rgb(12, 242, 0)" r="3.238095238095238" stroke="none" /><circle cx="240.96821467302414" cy="399.727842613882" fill="rgb(0, 255, 0)" r="3.0" stroke="none" /><circle cx="238.39223632261616" cy="399.55019164952614" fill="rgb(0, 255, 0)" r="3.0" stroke="none" /><circle cx="235.8196975972913" cy="399.3282258106877" fill="rgb(0, 255, 0)" r="3.0" stroke="none" /><circle cx="233.25136079450613" cy="399.0620108705239" fill="rgb(0, 255, 0)" r="3.0" stroke="none" /><circle cx="230.68798696659894" cy="398.75162571413375" fill="rgb(0, 255, 0)" r="3.0" stroke="none" /><circle cx="228.13033569527383" cy="398.3971623151824" fill="rgb(0, 255, 0)" r="3.0" stroke="none" /><circle cx="225.57916486652087" cy="397.9987257086473" fill="rgb(0, 255, 0)" r="3.0" stroke="none" /><circle cx="223.0352304460383" cy="397.5564339596947" fill="rgb(0, 255, 0)" r="3.0" stroke="none" /><circle cx="220.49928625522423" cy="397.07041812869375" fill="rgb(18, 236, 0)" r="3.357142857142857" stroke="none" /><circle cx="217.97208374780305" cy="396.5408222323809" fill="rgb(0, 255, 0)" r="3.0" stroke="none" /><circle cx="215.45437178715417" cy="395.9678032011849" fill="rgb(109, 145, 0)" r="5.142857142857142" stroke="none" /><circle cx="212.946896424408" cy="395.35153083272445" fill="rgb(42, 212, 0)" r="3.833333333333333" stroke="none" /><circle cx="210.45040067737494" cy="394.6921877414942" fill="rgb(30, 224, 0)" r="3.5952380952380953" stroke="none" /><circle cx="207.96562431037404" cy="393.98996930475187" fill="rgb(0, 255, 0)" r="3.0" stroke="none" /><circle cx="205.49330361502484" cy="393.2450836046237" fill="rgb(0, 255, 0)" r="3.0" stroke="none" /><circle cx="203.03417119206898" cy="392.4577513664459" fill="rgb(54, 200, 0)" r="4.071428571428571" stroke="none" /><circle cx="200.5889557342847" cy="391.6282058933584" fill="rgb(0, 255, 0)" r="3.0" stroke="none" /><circle cx="198.15838181056012" cy="390.75669299717276" fill="rgb(151, 103, 0)" r="5.976190476190476" stroke="none" /><circle cx="195.74316965118854" cy="389.84347092553264" fill="rgb(24, 230, 0)" r="3.4761904761904763" stroke="none" /><circle cx="193.34403493444813" cy="388.8888102853897" fill="rgb(121, 133, 0)" r="5.380952380952381" stroke="none" /><circle cx="190.96168857453216" cy="387.89299396281694" fill="rgb(97, 157, 0)" r="4.904761904761905" stroke="none" /><circle cx="188.59683651088974" cy="386.85631703918386" fill="rgb(42, 212, 0)" r="3.833333333333333" stroke="none" /><circle cx="186.25017949904134" cy="385.7790867037172" fill="rgb(6, 248, 0)" r="3.119047619047619" stroke="none" /><circle cx="183.92241290292975" cy="384.6616221624747" fill="rgb(255, 0, 0)" r="8.0" stroke="none" /><circle cx="181.61422648886958" cy="383.5042545437574" fill="rgb(109, 145, 0)" r="5.142857142857142" stroke="none" /><circle cx="179.32630422115466" cy="382.3073267999895" fill="rgb(91, 163, 0)" r="4.785714285714286" stroke="none" /><circle cx="177.05932405938506" cy="381.0711936060941" fill="rgb(18, 236, 0)" r="3.357142857142857" stroke="none" /><circle cx="174.8139577575732" cy="379.7962212543956" fill="rgb(163, 91, 0)" r="6.214285714285714" stroke="none" /><circle cx="172.59087066508962" cy="378.48278754608" fill="rgb(0, 255, 0)" r="3.0" stroke="none" /><circle cx="170.39072152950493" cy="377.13128167924356" fill="rgb(66, 188, 0)" r="4.309523809523809" stroke="none" /><circle cx="168.21416230138985" cy="375.74210413356616" fill="rgb(0, 255, 0)" r="3.0" stroke="none" /><circle cx="166.06183794112815" cy="374.31566655164005" fill="rgb(157, 97, 0)" r="6.095238095238095" stroke="none" /><circle cx="163.93438622780127" cy="372.8523916169918" fill="rgb(163, 91, 0)" r="6.214285714285714" stroke="none" /><circle cx="161.83243757020125" cy="371.35271292883215" fill="rgb(6, 248, 0)" r="3.119047619047619" stroke="none" /><circle cx="159.75661482002678" cy="369.8170748735713" fill="rgb(0, 255, 0)" r="3.0" stroke="none" /><circle cx="157.7075330873196" cy="368.2459324931382" fill="rgb(0, 255, 0)" r="3.0" stroke="none" /><circle cx="155.68579955819416" cy="366.6397513501417" fill="rgb(0, 255, 0)" r="3.0" stroke="none" /><circle cx="153.69201331491587" cy="364.9990073899147" fill="rgb(0, 255, 0)" r="3.0" stroke="none" /><circle cx="151.72676515837986" cy="363.3241867994815" fill="rgb(0, 255, 0)" r="3.0" stroke="none" /><circle cx="149.79063743304476" cy="361.61578586349026" fill="rgb(0, 255, 0)" r="3.0" stroke="none" /><circle cx="147.88420385437144" cy="359.8743108171534" fill="rgb(0, 255, 0)" r="3.0" stroke="none" /><circle cx="146.00802933881914" cy="358.1002776962396" fill="rgb(0, 255, 0)" r="3.0" stroke="none" /><circle cx="144.16266983644888" cy="356.29421218416115" fill="rgb(0, 255, 0)" r="3.0" stroke="none" /><circle cx="142.3486721661836" cy="354.45664945620354" fill="rgb(0, 255, 0)" r="3.0" stroke="none" /><circle cx="140.56657385377417" cy="352.5881340209409" fill="rgb(0, 255, 0)" r="3.0" stroke="none" /><circle cx="138.81690297251936" cy="350.6892195588873" fill="rgb(109, 145, 0)" r="5.142857142857142" stroke="none" /><circle cx="137.10017798678638" cy="348.7604687584293" fill="rgb(0, 255, 0)" r="3.0" stroke="none" /><circle cx="135.41690759837917" cy="346.8024531490893" fill="rgb(0, 255, 0)" r="3.0" stroke="none" /><circle cx="133.76759059579928" cy="344.81575293216986" fill="rgb(0, 255, 0)" r="3.0" stroke="none" /><circle cx="132.15271570644404" cy="342.80095680882715" fill="rgb(0, 255, 0)" r="3.0" stroke="none" /><circle cx="130.5727614517866" cy="340.75866180562673" fill="rgb(0, 255, 0)" r="3.0" stroke="none" /><circle cx="129.02819600558007" cy="338.6894730976323" fill="rgb(0, 255, 0)" r="3.0" stroke="none" /><circle cx="127.51947705512737" cy="336.5940038290789" fill="rgb(0, 255, 0)" r="3.0" stroke="none" /><circle cx="126.04705166565905" cy="334.4728749316856" fill="rgb(0, 255, 0)" r="3.0" stroke="none" /><circle cx="124.61135614785867" cy="332.326714940661" fill="rgb(0, 255, 0)" r="3.0" stroke="none" /><circle cx="123.21281592857416" cy="330.1561598084538" fill="rgb(0, 255, 0)" r="3.0" stroke="none" /><circle cx="121.85184542475548" cy="327.9618527163076" fill="rgb(0, 255, 0)" r="3.0" stroke="none" /><circle cx="120.52884792065387" cy="325.7444438836726" fill="rgb(0, 255, 0)" r="3.0" stroke="none" /><circle cx="119.24421544832" cy="323.5045903755313" fill="rgb(0, 255, 0)" r="3.0" stroke="none" /><circle cx="117.99832867143718" cy="321.24295590769714" fill="rgb(0, 255, 0)" r="3.0" stroke="none" /><circle cx="116.79155677252211" cy="318.9602106501408" fill="rgb(0, 255, 0)" r="3.0" stroke="none" /><circle cx="115.62425734352854" cy="316.6570310284051" fill="rgb(0, 255, 0)" r="3.0" stroke="none" /><circle cx="114.49677627988552" cy="314.3340995231658" fill="rgb(0, 255, 0)" r="3.0" stroke="none" /><circle cx="113.40944767800073" cy="311.99210446799805" fill="rgb(0, 255, 0)" r="3.0" stroke="none" /><circle cx="112.36259373626112" cy="309.6317398454086" fill="rgb(0, 255, 0)" r="3.0" stroke="none" /><circle cx="111.35652465955863" cy="307.2537050811947" fill="rgb(0, 255, 0)" r="3.0" stroke="none" /><circle cx="110.39153856736971" cy="304.85870483718855" fill="rgb(0, 255, 0)" r="3.0" stroke="none" /><circle cx="109.46792140541658" cy="302.4474488024521" fill="rgb(0, 255, 0)" r="3.0" stroke="none" /><circle cx="108.58594686093537" cy="300.02065148298055" fill="rgb(0, 255, 0)" r="3.0" stroke="none" /><circle cx="107.74587628157661" cy="297.5790319899795" fill="rgb(0, 255, 0)" r="3.0" stroke="none" /><circle cx="106.94795859796264" cy="295.1233138267768" fill="rgb(0, 255, 0)" r="3.0" stroke="none" /><circle cx="106.19243024992423" cy="292.6542246744339" fill="rgb(0, 255, 0)" r="3.0" stroke="none" /><circle cx="105.47951511643825" cy="290.1724961761179" fill="rgb(0, 255, 0)" r="3.0" stroke="none" /><circle cx="104.80942444928797" cy="287.6788637203006" fill="rgb(0, 255, 0)" r="3.0" stroke="none" /><circle cx="104.18235681046434" cy="285.1740662228476" fill="rgb(0, 255, 0)" r="3.0" stroke="none" /><circle cx="103.59849801332805" cy="282.6588459080612" fill="rgb(0, 255, 0)" r="3.0" stroke="none" /><circle cx="103.05802106754913" cy="280.1339480887448" fill="rgb(0, 255, 0)" r="3.0" stroke="none" /><circle cx="102.56108612784055" cy="277.60012094535006" fill="rgb(0, 255, 0)" r="3.0" stroke="none" /><circle cx="102.10784044650092" cy="275.0581153042756" fill="rgb(6, 248, 0)" r="3.119047619047619" stroke="none" /><circle cx="101.6984183297806" cy="272.50868441538154" fill="rgb(36, 218, 0)" r="3.7142857142857144" stroke="none" /><circle cx="101.33294109808381" cy="269.9525837287852" fill="rgb(12, 242, 0)" r="3.238095238095238" stroke="none" /><circle cx="101.01151705001905" cy="267.3905706710056" fill="rgb(0, 255, 0)" r="3.0" stroke="none" /><circle cx="100.7342414303078" cy="264.82340442052225" fill="rgb(0, 255, 0)" r="3.0" stroke="none" /><circle cx="100.50119640156143" cy="262.2518456828139" fill="rgb(0, 255, 0)" r="3.0" stroke="none" /><circle cx="100.3124510199348" cy="259.67665646494635" fill="rgb(0, 255, 0)" r="3.0" stroke="none" /><circle cx="100.16806121466357" cy="257.09859984977265" fill="rgb(0, 255, 0)" r="3.0" stroke="none" /><circle cx="100.06806977149083" cy="254.5184397698163" fill="rgb(0, 255, 0)" r="3.0" stroke="none" /><circle cx="100.0125063199892" cy="251.9369407809023" fill="rgb(24, 230, 0)" r="3.4761904761904763" stroke="none" /><circle cx="100.0013873247807" cy="249.35486783560185" fill="rgb(0, 255, 0)" r="3.0" stroke="none" /><circle cx="100.034716080658" cy="246.77298605656176" fill="rgb(12, 242, 0)" r="3.238095238095238" stroke="none" /><circle cx="100.11248271160812" cy="244.19206050978258" fill="rgb(0, 255, 0)" r="3.0" stroke="none" /><circle cx="100.2346641737389" cy="241.61285597791263" fill="rgb(24, 230, 0)" r="3.4761904761904763" stroke="none" /><circle cx="100.4012242621074" cy="239.0361367336273" fill="rgb(6, 248, 0)" r="3.119047619047619" stroke="none" /><circle cx="100.61211362144812" cy="236.46266631315933" fill="rgb(0, 255, 0)" r="3.0" stroke="none" /><circle cx="100.86726976079811" cy="233.89320729004578" fill="rgb(24, 230, 0)" r="3.4761904761904763" stroke="none" /><circle cx="101.16661707201425" cy="231.3285210491628" fill="rgb(12, 242, 0)" r="3.238095238095238" stroke="none" /><circle cx="101.51006685217766" cy="228.7693675611099" fill="rgb(6, 248, 0)" r="3.119047619047619" stroke="none" /><circle cx="101.89751732987816" cy="226.21650515701577" fill="rgb(24, 230, 0)" r="3.4761904761904763" stroke="none" /><circle cx="102.32885369537124" cy="223.67069030382828" fill="rgb(0, 255, 0)" r="3.0" stroke="none" /><circle cx="102.8039481345987" cy="221.13267738015708" fill="rgb(0, 255, 0)" r="3.0" stroke="none" /><circle cx="103.32265986706275" cy="218.60321845273572" fill="rgb(24, 230, 0)" r="3.4761904761904763" stroke="none" /><circle cx="103.88483518754188" cy="216.08306305356862" fill="rgb(0, 255, 0)" r="3.0" stroke="none" /><circle cx="104.49030751163735" cy="213.57295795782835" fill="rgb(12, 242, 0)" r="3.238095238095238" stroke="none" /><circle cx="105.1388974251355" cy="211.07364696257065" fill="rgb(24, 230, 0)" r="3.4761904761904763" stroke="none" /><circle cx="105.83041273717183" cy="208.58587066633214" fill="rgb(0, 255, 0)" r="3.0" stroke="none" /><circle cx="106.56464853718145" cy="206.11036624967443" fill="rgb(12, 242, 0)" r="3.238095238095238" stroke="none" /><circle cx="107.34138725561826" cy="203.64786725674293" fill="rgb(0, 255, 0)" r="3.0" stroke="none" /><circle cx="108.16039872842535" cy="201.19910337790176" fill="rgb(0, 255, 0)" r="3.0" stroke="none" /><circle cx="109.02144026523763" cy="198.76480023351098" fill="rgb(0, 255, 0)" r="3.0" stroke="none" /><circle cx="109.92425672129599" cy="196.34567915891017" fill="rgb(0, 255, 0)" r="3.0" stroke="none" /><circle cx="110.86858057305196" cy="193.94245699067196" fill="rgb(0, 255, 0)" r="3.0" stroke="none" /><circle cx="111.85413199744087" cy="191.5558458541873" fill="rgb(0, 255, 0)" r="3.0" stroke="none" /><circle cx="112.88061895479902" cy="189.18655295264887" fill="rgb(6, 248, 0)" r="3.119047619047619" stroke="none" /><circle cx="113.94773727540138" cy="186.83528035749072" fill="rgb(0, 255, 0)" r="3.0" stroke="none" /><circle cx="115.05517074959351" cy="184.50272480035036" fill="rgb(0, 255, 0)" r="3.0" stroke="none" /><circle cx="116.2025912214909" cy="182.18957746661258" fill="rgb(0, 255, 0)" r="3.0" stroke="none" /><circle cx="117.3896586862187" cy="179.89652379059632" fill="rgb(0, 255, 0)" r="3.0" stroke="none" /><circle cx="118.61602139066238" cy="177.62424325244592" fill="rgb(0, 255, 0)" r="3.0" stroke="none" /><circle cx="119.88131593769936" cy="175.37340917678745" fill="rgb(0, 255, 0)" r="3.0" stroke="none" /><circle cx="121.18516739388147" cy="173.14468853320764" fill="rgb(0, 255, 0)" r="3.0" stroke="none" /><circle cx="122.52718940053555" cy="170.93874173861724" fill="rgb(12, 242, 0)" r="3.238095238095238" stroke="none" /><circle cx="123.90698428824946" cy="168.75622246155564" fill="rgb(0, 255, 0)" r="3.0" stroke="none" /><circle cx="125.3241431947104" cy="166.59777742849462" fill="rgb(0, 255, 0)" r="3.0" stroke="none" /><circle cx="126.77824618585885" cy="164.4640462322002" fill="rgb(0, 255, 0)" r="3.0" stroke="none" /><circle cx="128.26886238032432" cy="162.35566114220734" fill="rgb(0, 255, 0)" r="3.0" stroke="none" /><circle cx="129.79555007710465" cy="160.27324691746531" fill="rgb(0, 255, 0)" r="3.0" stroke="none" /><circle cx="131.35785688645052" cy="158.21742062120916" fill="rgb(0, 255, 0)" r="3.0" stroke="none" /><circle cx="132.9553198639192" cy="156.18879143810943" fill="rgb(0, 255, 0)" r="3.0" stroke="none" /><circle cx="134.5874656475541" cy="154.18796049375896" fill="rgb(0, 255, 0)" r="3.0" stroke="none" /><circle cx="136.25381059815177" cy="152.21552067654667" fill="rgb(0, 255, 0)" r="3.0" stroke="none" /><circle cx="137.95386094257492" cy="150.2720564619717" fill="rgb(12, 242, 0)" r="3.238095238095238" stroke="none" /><circle cx="139.68711292006748" cy="148.3581437394512" fill="rgb(6, 248, 0)" r="3.119047619047619" stroke="none" /><circle cx="141.45305293152933" cy="146.47434964167275" fill="rgb(0, 255, 0)" r="3.0" stroke="none" /><circle cx="143.25115769170708" cy="144.62123237653987" fill="rgb(0, 255, 0)" r="3.0" stroke="none" /><circle cx="145.08089438425395" cy="142.79934106176432" fill="rgb(6, 248, 0)" r="3.119047619047619" stroke="none" /><circle cx="146.9417208196151" cy="141.0092155621502" fill="rgb(0, 255, 0)" r="3.0" stroke="none" /><circle cx="148.83308559568906" cy="139.25138632962114" fill="rgb(0, 255, 0)" r="3.0" stroke="none" /><circle cx="150.75442826122065" cy="137.5263742460358" fill="rgb(0, 255, 0)" r="3.0" stroke="none" /><circle cx="152.70517948187373" cy="135.8346904688399" fill="rgb(0, 255, 0)" r="3.0" stroke="none" /><circle cx="154.68476120893743" cy="134.1768362795994" fill="rgb(0, 255, 0)" r="3.0" stroke="none" /><circle cx="156.69258685061413" cy="132.55330293546007" fill="rgb(0, 255, 0)" r="3.0" stroke="none" /><circle cx="158.7280614458389" cy="130.96457152357775" fill="rgb(0, 255, 0)" r="3.0" stroke="none" /><circle cx="160.79058184057908" cy="129.411112818562" fill="rgb(0, 255, 0)" r="3.0" stroke="none" /><circle cx="162.87953686656087" cy="127.89338714297627" fill="rgb(0, 255, 0)" r="3.0" stroke="none" /><circle cx="164.99430752237265" cy="126.41184423093347" fill="rgb(0, 255, 0)" r="3.0" stroke="none" /><circle cx="167.13426715688746" cy="124.96692309483103" fill="rgb(0, 255, 0)" r="3.0" stroke="none" /><circle cx="169.29878165495217" cy="123.55905189526251" fill="rgb(0, 255, 0)" r="3.0" stroke="none" /><circle cx="171.48720962529075" cy="122.18864781414383" fill="rgb(0, 255, 0)" r="3.0" stroke="none" /><circle cx="173.6989025905608" cy="120.85611693109396" fill="rgb(72, 182, 0)" r="4.428571428571429" stroke="none" /><circle cx="175.9332051795117" cy="119.5618541031049" fill="rgb(0, 255, 0)" r="3.0" stroke="none" /><circle cx="178.18945532118477" cy="118.30624284753708" fill="rgb(0, 255, 0)" r="3.0" stroke="none" /><circle cx="180.46698444109805" cy="117.08965522847555" fill="rgb(0, 255, 0)" r="3.0" stroke="none" /><circle cx="182.76511765936056" cy="115.91245174647881" fill="rgb(0, 255, 0)" r="3.0" stroke="none" /><circle cx="185.08317399065234" cy="114.77498123175548" fill="rgb(151, 103, 0)" r="5.976190476190476" stroke="none" /><circle cx="187.420466546015" cy="113.67758074079828" fill="rgb(0, 255, 0)" r="3.0" stroke="none" /><circle cx="189.77630273639176" cy="112.62057545650708" fill="rgb(0, 255, 0)" r="3.0" stroke="none" /><circle cx="192.149984477855" cy="111.60427859183079" fill="rgb(0, 255, 0)" r="3.0" stroke="none" /><circle cx="194.54080839846497" cy="110.62899129695506" fill="rgb(0, 255, 0)" r="3.0" stroke="none" /><circle cx="196.94806604669256" cy="109.69500257006558" fill="rgb(0, 255, 0)" r="3.0" stroke="none" /><circle cx="199.37104410134899" cy="108.80258917171162" fill="rgb(0, 255, 0)" r="3.0" stroke="none" /><circle cx="201.80902458295685" cy="107.95201554279646" fill="rgb(0, 255, 0)" r="3.0" stroke="none" /><circle cx="204.26128506650417" cy="107.14353372621733" fill="rgb(103, 151, 0)" r="5.023809523809524" stroke="none" /><circle cx="206.7270988955131" cy="106.37738329218027" fill="rgb(0, 255, 0)" r="3.0" stroke="none" /><circle cx="209.2057353973638" cy="105.65379126721027" fill="rgb(0, 255, 0)" r="3.0" stroke="none" /><circle cx="211.6964600998084" cy="104.97297206687841" fill="rgb(0, 255, 0)" r="3.0" stroke="none" /><circle cx="214.19853494860962" cy="104.3351274322664" fill="rgb(0, 255, 0)" r="3.0" stroke="none" /><circle cx="216.71121852624321" cy="103.74044637018591" fill="rgb(188, 66, 0)" r="6.690476190476191" stroke="none" /><circle cx="219.2337662715951" cy="103.18910509717216" fill="rgb(18, 236, 0)" r="3.357142857142857" stroke="none" /><circle cx="221.76543070058946" cy="102.68126698726743" fill="rgb(18, 236, 0)" r="3.357142857142857" stroke="none" /><circle cx="224.3054616276857" cy="102.2170825236094" fill="rgb(0, 255, 0)" r="3.0" stroke="none" /><circle cx="226.85310638817325" cy="101.7966892538403" fill="rgb(0, 255, 0)" r="3.0" stroke="none" /><circle cx="229.40761006120218" cy="101.42021174934831" fill="rgb(0, 255, 0)" r="3.0" stroke="none" /><circle cx="231.96821569348248" cy="101.08776156835455" fill="rgb(0, 255, 0)" r="3.0" stroke="none" /><circle cx="234.53416452358408" cy="100.79943722285617" fill="rgb(0, 255, 0)" r="3.0" stroke="none" /><circle cx="237.10469620677566" cy="100.55532414943497" fill="rgb(0, 255, 0)" r="3.0" stroke="none" /><circle cx="239.67904904032957" cy="100.35549468394078" fill="rgb(0, 255, 0)" r="3.0" stroke="none" /><circle cx="242.25646018923112" cy="100.20000804005684" fill="rgb(12, 242, 0)" r="3.238095238095238" stroke="none" /><circle cx="244.83616591222142" cy="100.08891029175362" fill="rgb(0, 255, 0)" r="3.0" stroke="none" /><circle cx="247.4174017881117" cy="100.022234359636" fill="rgb(0, 255, 0)" r="3.0" stroke="none" /><circle cx="249.99940294229643" cy="100.00000000118825" fill="rgb(36, 218, 0)" r="3.7142857142857144" stroke="none" /><circle cx="252.5814042734022" cy="100.02221380491957" fill="rgb(145, 109, 0)" r="5.857142857142857" stroke="none" /><circle cx="255.16264068000243" cy="100.08886918841156" fill="rgb(6, 248, 0)" r="3.119047619047619" stroke="none" /><circle cx="257.7423472873345" cy="100.19994640026891" fill="rgb(0, 255, 0)" r="3.0" stroke="none" /><g><rect fill="blue" height="10.0" stroke="black" stroke-width="1" width="20" x="247.7423472873345" y="95.19994640026891" /><circle cx="251.7423472873345" cy="95.19994640026891" fill="black" r="3" /><circle cx="263.7423472873345" cy="95.19994640026891" fill="black" r="3" /><circle cx="251.7423472873345" cy="105.19994640026891" fill="black" r="3" /><circle cx="263.7423472873345" cy="105.19994640026891" fill="black" r="3" /></g><line stroke="red" stroke-width="2" x1="240.00019901923451" x2="260.0001990192345" y1="90.00000000013202" y2="110.00000000013202" /><line stroke="red" stroke-width="2" x1="240.00019901923451" x2="260.0001990192345" y1="110.00000000013202" y2="90.00000000013202" /></svg>